<?xml version="1.0" standalone="no"?>
<!DOCTYPE svg PUBLIC "-//W3C//DTD SVG 20010904//EN"
 "http://www.w3.org/TR/2001/REC-SVG-20010904/DTD/svg10.dtd">
<svg version="1.0" xmlns="http://www.w3.org/2000/svg"
 width="489.000000pt" height="489.000000pt" viewBox="0 0 489.000000 489.000000"
 preserveAspectRatio="xMidYMid meet">

<g transform="translate(0.000000,489.000000) scale(0.100000,-0.100000)"
fill="#000000" stroke="none">
<path d="M1125 4691 c-149 -40 -268 -111 -371 -224 -151 -165 -211 -358 -202
-651 l3 -106 -136 0 c-161 0 -222 -14 -280 -67 -102 -92 -116 -239 -35 -346
14 -19 50 -47 78 -63 51 -28 59 -29 210 -32 l158 -4 0 -248 0 -248 -157 -4
c-182 -4 -212 -14 -280 -92 -109 -124 -70 -309 82 -389 35 -18 61 -22 198 -25
l157 -4 0 -248 0 -248 -158 -4 c-151 -3 -159 -4 -210 -32 -182 -101 -172 -353
18 -452 29 -15 65 -19 195 -22 l160 -4 -3 -111 c-6 -217 29 -388 109 -524 19
-32 74 -99 124 -148 101 -102 195 -156 340 -197 l80 -23 1485 0 c1665 0 1553
-5 1715 74 163 78 279 191 354 345 83 168 76 8 76 1851 0 1556 -1 1643 -18
1705 -71 253 -255 445 -512 534 -60 21 -70 21 -1585 23 -1456 2 -1528 1 -1595
-16z m185 -731 l0 -250 -125 0 -125 0 0 154 c0 148 1 156 28 206 40 78 126
138 200 140 l22 0 0 -250z m2852 238 c57 -17 133 -88 155 -146 17 -45 18 -122
18 -1612 0 -1423 -1 -1568 -16 -1601 -26 -56 -79 -110 -134 -135 l-50 -24
-1287 0 -1288 0 0 1765 0 1765 1281 0 c961 0 1292 -3 1321 -12z m-2852 -1248
l0 -250 -125 0 -125 0 0 250 0 250 125 0 125 0 0 -250z m0 -1010 l0 -250 -125
0 -125 0 0 250 0 250 125 0 125 0 0 -250z m0 -1011 l0 -252 -42 7 c-55 9 -120
47 -152 89 -49 64 -56 96 -56 257 l0 150 125 0 125 0 0 -251z"/>
<path d="M2706 3314 c-381 -92 -514 -567 -237 -845 199 -199 510 -198 711 1
242 240 174 653 -132 803 -115 56 -225 69 -342 41z"/>
<path d="M2665 2093 c-158 -22 -294 -82 -382 -169 -50 -49 -65 -71 -78 -118
-21 -72 -11 -101 48 -139 196 -128 833 -140 1097 -21 85 38 104 61 98 123 -14
143 -185 269 -427 315 -77 15 -277 20 -356 9z"/>
</g>
</svg>
